<svg width="20" height="20" viewBox="0 0 20 20" fill="none" xmlns="http://www.w3.org/2000/svg">
<path d="M5.03988 12.768C5.03988 13.6 5.63188 14.016 6.81588 14.016C8.03188 14.016 9.58388 13.632 11.4719 12.864C13.3599 12.064 15.1039 11.088 16.7039 9.93604L16.7999 10.656C15.1359 11.872 13.2639 12.88 11.1839 13.68C9.13588 14.48 7.39188 14.88 5.95188 14.88C4.03188 14.88 3.07188 14.176 3.07188 12.768C3.07188 11.232 4.27188 9.53604 6.67188 7.68004C9.07188 5.79204 11.3919 4.84804 13.6319 4.84804C14.7199 4.84804 15.2639 5.24804 15.2639 6.04804C15.2639 6.59204 15.0559 7.10404 14.6399 7.58404C14.2559 8.06404 13.7599 8.30404 13.1519 8.30404C12.5439 8.30404 12.2399 8.14404 12.2399 7.82404C12.2399 7.50404 12.4159 7.21604 12.7679 6.96004C13.1199 6.70404 13.5039 6.57604 13.9199 6.57604C14.3679 6.54404 14.5919 6.38404 14.5919 6.09604C14.5919 5.93604 14.4959 5.79204 14.3039 5.66404C14.1119 5.50404 13.8719 5.42404 13.5839 5.42404C12.0479 5.42404 10.2399 6.35204 8.15988 8.20804C6.07988 10.032 5.03988 11.552 5.03988 12.768ZM10.9439 1.00804C7.93588 1.00804 5.53588 2.04804 3.74388 4.12804C1.95188 6.17604 1.05588 8.40004 1.05588 10.8C1.05588 13.168 1.71188 15.104 3.02388 16.608C4.36788 18.08 6.27188 18.816 8.73588 18.816C11.7439 18.816 14.1439 17.792 15.9359 15.744C17.7279 13.664 18.6239 11.44 18.6239 9.07204C18.6239 6.67204 17.9519 4.73604 16.6079 3.26404C15.2959 1.76004 13.4079 1.00804 10.9439 1.00804ZM8.06388 19.824C5.40788 19.824 3.39188 19.072 2.01588 17.568C0.671875 16.064 -0.000124633 14.176 -0.000124633 11.904C-0.000124633 8.89604 1.07188 6.16004 3.21588 3.69604C5.35988 1.23204 8.15988 3.91006e-05 11.6159 3.91006e-05C14.2719 3.91006e-05 16.2719 0.752039 17.6159 2.25604C18.9919 3.76004 19.6799 5.64804 19.6799 7.92004C19.6799 10.928 18.6079 13.664 16.4639 16.128C14.3199 18.592 11.5199 19.824 8.06388 19.824Z" fill="#932823"/>
</svg>
